# xmcd
#
# Track frame offsets:
#	150
#	83176
#	123630
#	140250
#	174835
#	254432
#	270703
#	345461
#
# Disc length: 4782 seconds
#
# Revision: 1
# Processed by: cddbd v1.5.2PL0 Copyright (c) Steve Scherf et al.
# Submitted via: audiograbber 1.83.01
#
DISCID=6c12ac08
DTITLE=Spirit - California Blues Redux Bonus Live [2/2]
DYEAR=2009
DGENRE=Blues
TTITLE0=Love From Here
TTITLE1=Pawnshop Blues
TTITLE2=One World
TTITLE3=Red House
TTITLE4=Stewball
TTITLE5=Song for Clyde
TTITLE6=Medley: Fixing to Die/Gopal/Phoenix, Land of the Rising Sun
TTITLE7=We Believe
EXTD=
EXTT0=
EXTT1=
EXTT2=
EXTT3=
EXTT4=
EXTT5=
EXTT6=
EXTT7=
PLAYORDER=
